<svg width="432" height="393" viewBox="0 0 432 393" fill="none" xmlns="http://www.w3.org/2000/svg">
<path fill-rule="evenodd" clip-rule="evenodd" d="M216 16.5774C180.095 16.5774 146.237 24.2021 116.445 37.6927C73.6662 4.00551 43.5655 -6.73447 28.2294 4.00397C12.1792 15.2425 12.4378 49.9102 32.1923 105.785C11.7813 134.492 0 168.337 0 204.577C0 308.407 96.7065 392.577 216 392.577C335.294 392.577 432 308.407 432 204.577C432 168.383 420.248 134.577 399.885 105.893C419.411 49.7978 419.944 15.2915 403.886 4.04815C388.548 -6.69158 358.199 3.88171 315.611 37.7183C285.806 24.2118 251.927 16.5774 216 16.5774Z" fill="#FFF4D8"/>
<circle cx="108.5" cy="173.077" r="32.5" fill="black"/>
<circle cx="319.5" cy="173.077" r="32.5" fill="black"/>
<path fill-rule="evenodd" clip-rule="evenodd" d="M171.273 236.931C171.468 231.964 167.6 227.78 162.633 227.584C157.666 227.389 153.482 231.257 153.287 236.224L153.277 236.486C152.887 246.399 152.46 257.263 155.408 266.408C156.986 271.303 159.566 275.915 163.664 279.82C167.73 283.695 172.882 286.485 179.052 288.369C194.886 293.203 206.967 282.818 213.444 275.079C214.391 273.947 215.278 272.806 216.104 271.678C216.944 272.829 217.848 273.995 218.815 275.15C225.292 282.89 237.373 293.274 253.207 288.44C259.377 286.556 264.529 283.766 268.595 279.891C272.693 275.986 275.273 271.374 276.851 266.479C279.799 257.334 279.372 246.47 278.983 236.557L278.972 236.295C278.777 231.329 274.593 227.46 269.626 227.656C264.659 227.851 260.791 232.035 260.986 237.002C261.414 247.894 261.518 255.377 259.719 260.957C258.91 263.465 257.77 265.342 256.177 266.86C254.553 268.409 252.044 269.974 247.95 271.224C243.254 272.659 238.173 270.235 232.62 263.598C230.088 260.573 228.031 257.296 226.589 254.712C225.877 253.437 225.337 252.371 224.983 251.642C224.807 251.279 224.678 251.003 224.599 250.83C224.56 250.744 224.533 250.683 224.518 250.651L224.514 250.641L224.329 250.721C224.329 250.72 224.328 250.719 224.328 250.719C224.506 250.641 224.512 250.638 224.512 250.637L224.512 250.637L224.51 250.633L224.507 250.626C223.376 248.023 221.161 246.225 218.621 245.531C214.303 244.214 209.594 246.319 207.752 250.554L207.749 250.562L207.747 250.566L207.741 250.58C207.726 250.612 207.699 250.673 207.66 250.759C207.581 250.932 207.452 251.208 207.276 251.571C206.922 252.299 206.382 253.366 205.671 254.641C204.228 257.225 202.171 260.502 199.64 263.527C194.086 270.164 189.006 272.587 184.309 271.153C180.215 269.903 177.706 268.338 176.082 266.789C174.489 265.271 173.349 263.394 172.54 260.885C170.741 255.306 170.845 247.823 171.273 236.931ZM207.982 250.669C207.752 250.569 207.747 250.566 207.747 250.566L207.745 250.57L207.98 250.672C207.981 250.671 207.981 250.67 207.982 250.669Z" fill="black"/>
</svg>
