<svg width="272" height="229" viewBox="0 0 272 229" fill="none" xmlns="http://www.w3.org/2000/svg">
<path fill-rule="evenodd" clip-rule="evenodd" d="M211 70H61V183V185H61.6212C63.4652 187.891 69.205 190 76 190C82.795 190 88.5348 187.891 90.3788 185H91.6212C91.217 184.366 91 183.695 91 183C91 179.134 97.7157 176 106 176C114.284 176 121 179.134 121 183C121 183.695 120.783 184.366 120.379 185H121.621C123.465 187.891 129.205 190 136 190C142.795 190 148.535 187.891 150.379 185H151.621C151.217 184.366 151 183.695 151 183C151 179.134 157.716 176 166 176C174.284 176 181 179.134 181 183C181 183.695 180.783 184.366 180.379 185H181.621C183.465 187.891 189.205 190 196 190C202.795 190 208.535 187.891 210.379 185H211V183V70Z" fill="#FFF6D5"/>
<ellipse cx="136" cy="72.5" rx="75" ry="72.5" fill="#FFF6D5"/>
<circle cx="95" cy="70" r="10" fill="#666666"/>
<circle cx="154" cy="70" r="10" fill="#666666"/>
<path fill-rule="evenodd" clip-rule="evenodd" d="M102.001 93.1951C102 93.2209 102 93.2468 102 93.2727H102.002C102.158 104.028 112.171 112.704 124.5 112.704C136.829 112.704 146.842 104.028 146.998 93.2727H147C147 93.2468 147 93.2209 146.999 93.1951C147 93.1358 147 93.0764 147 93.017C147 92.8289 146.997 92.6414 146.991 92.4545H146.897C146.534 91.043 145.252 90 143.727 90H105.273C103.748 90 102.466 91.043 102.103 92.4545H102.009C102.003 92.6414 102 92.8289 102 93.017C102 93.0764 102 93.1358 102.001 93.1951Z" fill="#666666"/>
<rect x="76" y="86" width="18" height="8" rx="4" fill="#FFCDCD"/>
<rect x="155" y="86" width="18" height="8" rx="4" fill="#FFCDCD"/>
<ellipse cx="53.9692" cy="120.633" rx="16" ry="26" transform="rotate(-40 53.9692 120.633)" fill="#FFF6D5"/>
<ellipse cx="219.91" cy="121.399" rx="16" ry="27" transform="rotate(-140 219.91 121.399)" fill="#FFF6D5"/>
<ellipse cx="136" cy="219" rx="136" ry="10" fill="#525151"/>
</svg>
